999
"DXF R12 Output" (www.mydxf.blogspot.com)
 0 
SECTION
 2 
HEADER
 9 
$ACADVER
 1 
AC1009
 9 
$EXTMIN
 10 
 0 
 20 
 0 
 9 
$EXTMAX
 10 
 8.5 
 20 
 11 
 0 
ENDSEC
 0 
SECTION
 2 
ENTITIES
0
POLYLINE
8
  0
62
7
70
0
10
0.000000
20
0.000000
66
1
0
VERTEX
8
  0
10
94.437528
20
94.437819
70
0
0
VERTEX
8
  0
10
94.437528
20
4.437533
70
0
0
SEQEND
8
  0
0
POLYLINE
8
  0
62
7
70
0
10
0.000000
20
0.000000
66
1
0
VERTEX
8
  0
10
94.437528
20
4.437533
70
0
0
VERTEX
8
  0
10
49.437516
20
49.437807
70
0
0
SEQEND
8
  0
0
POLYLINE
8
  0
62
7
70
0
10
0.000000
20
0.000000
66
1
0
VERTEX
8
  0
10
49.437516
20
49.437807
70
0
0
VERTEX
8
  0
10
4.437503
20
94.437819
70
0
0
SEQEND
8
  0
0
POLYLINE
8
  0
62
7
70
0
10
0.000000
20
0.000000
66
1
0
VERTEX
8
  0
10
4.437503
20
94.437819
70
0
0
VERTEX
8
  0
10
94.437528
20
94.437819
70
0
0
SEQEND
8
  0
0
POLYLINE
8
  0
62
7
70
0
10
0.000000
20
0.000000
66
1
0
VERTEX
8
  0
10
94.437528
20
94.437819
70
0
0
VERTEX
8
  0
10
49.437516
20
49.437807
70
0
0
SEQEND
8
  0
0
POLYLINE
8
  0
62
7
70
0
10
0.000000
20
0.000000
66
1
0
VERTEX
8
  0
10
49.437516
20
49.437807
70
0
0
VERTEX
8
  0
10
49.437516
20
49.437807
70
0
0
SEQEND
8
  0
0
POLYLINE
8
  0
62
7
70
0
10
0.000000
20
0.000000
66
1
0
VERTEX
8
  0
10
49.437516
20
49.437807
70
0
0
VERTEX
8
  0
10
4.437503
20
4.437533
70
0
0
SEQEND
8
  0
0
POLYLINE
8
  0
62
7
70
0
10
0.000000
20
0.000000
66
1
0
VERTEX
8
  0
10
4.437503
20
4.437533
70
0
0
VERTEX
8
  0
10
94.437528
20
94.437819
70
0
0
SEQEND
8
  0
0
POLYLINE
8
  0
62
7
70
0
10
0.000000
20
0.000000
66
1
0
VERTEX
8
  0
10
94.437528
20
4.437533
70
0
0
VERTEX
8
  0
10
4.437503
20
4.437533
70
0
0
SEQEND
8
  0
0
POLYLINE
8
  0
62
7
70
0
10
0.000000
20
0.000000
66
1
0
VERTEX
8
  0
10
4.437503
20
4.437533
70
0
0
VERTEX
8
  0
10
4.437503
20
94.437819
70
0
0
SEQEND
8
  0
0
POLYLINE
8
  0
62
7
70
0
10
0.000000
20
0.000000
66
1
0
VERTEX
8
  0
10
4.437503
20
94.437819
70
0
0
VERTEX
8
  0
10
49.437516
20
49.437807
70
0
0
SEQEND
8
  0
0
POLYLINE
8
  0
62
7
70
0
10
0.000000
20
0.000000
66
1
0
VERTEX
8
  0
10
49.437516
20
49.437807
70
0
0
VERTEX
8
  0
10
94.437528
20
4.437533
70
0
0
SEQEND
8
  0
 0 
ENDSEC
 0 
EOF