999
"DXF R12 Output" (www.mydxf.blogspot.com)
 0 
SECTION
 2 
HEADER
 9 
$ACADVER
 1 
AC1009
 9 
$EXTMIN
 10 
 0 
 20 
 0 
 9 
$EXTMAX
 10 
 8.5 
 20 
 11 
 0 
ENDSEC
 0 
SECTION
 2 
ENTITIES
0
POLYLINE
8
0
62
7
70
0
10
0.000000
20
0.000000
66
1
0
VERTEX
8
0
10
9.999994
20
10.001528
70
0
0
VERTEX
8
0
10
89.999760
20
10.001528
70
0
0
SEQEND
8
0
0
POLYLINE
8
0
62
7
70
0
10
0.000000
20
0.000000
66
1
0
VERTEX
8
0
10
59.999925
20
50.000311
70
0
0
VERTEX
8
0
10
59.911984
20
51.324905
70
0
0
VERTEX
8
0
10
59.653770
20
52.609484
70
0
0
VERTEX
8
0
10
59.233698
20
53.839475
70
0
0
VERTEX
8
0
10
58.660180
20
55.000305
70
0
0
VERTEX
8
0
10
57.941631
20
56.077401
70
0
0
VERTEX
8
0
10
57.086464
20
57.056189
70
0
0
VERTEX
8
0
10
56.103093
20
57.922098
70
0
0
VERTEX
8
0
10
54.999931
20
58.660554
70
0
0
VERTEX
8
0
10
53.808828
20
59.246693
70
0
0
VERTEX
8
0
10
52.567243
20
59.665363
70
0
0
VERTEX
8
0
10
51.292004
20
59.916565
70
0
0
VERTEX
8
0
10
49.999937
20
60.000299
70
0
0
VERTEX
8
0
10
48.707870
20
59.916565
70
0
0
VERTEX
8
0
10
47.432631
20
59.665363
70
0
0
VERTEX
8
0
10
46.191046
20
59.246693
70
0
0
VERTEX
8
0
10
44.999943
20
58.660554
70
0
0
VERTEX
8
0
10
43.896781
20
57.922098
70
0
0
VERTEX
8
0
10
42.913410
20
57.056189
70
0
0
VERTEX
8
0
10
42.058243
20
56.077401
70
0
0
VERTEX
8
0
10
41.339694
20
55.000305
70
0
0
VERTEX
8
0
10
40.766176
20
53.839475
70
0
0
VERTEX
8
0
10
40.346104
20
52.609484
70
0
0
VERTEX
8
0
10
40.087890
20
51.324905
70
0
0
VERTEX
8
0
10
39.999950
20
50.000311
70
0
0
VERTEX
8
0
10
40.087890
20
48.675717
70
0
0
VERTEX
8
0
10
40.346104
20
47.391138
70
0
0
VERTEX
8
0
10
40.766176
20
46.161147
70
0
0
VERTEX
8
0
10
41.339694
20
45.000317
70
0
0
VERTEX
8
0
10
42.058243
20
43.923222
70
0
0
VERTEX
8
0
10
42.913410
20
42.944433
70
0
0
VERTEX
8
0
10
43.896781
20
42.078524
70
0
0
VERTEX
8
0
10
44.999943
20
41.340068
70
0
0
VERTEX
8
0
10
46.191046
20
40.753930
70
0
0
VERTEX
8
0
10
47.432631
20
40.335260
70
0
0
VERTEX
8
0
10
48.707870
20
40.084058
70
0
0
VERTEX
8
0
10
49.999937
20
40.000324
70
0
0
VERTEX
8
0
10
51.292004
20
40.084058
70
0
0
VERTEX
8
0
10
52.567243
20
40.335260
70
0
0
VERTEX
8
0
10
53.808828
20
40.753930
70
0
0
VERTEX
8
0
10
54.999931
20
41.340068
70
0
0
VERTEX
8
0
10
56.103093
20
42.078524
70
0
0
VERTEX
8
0
10
57.086464
20
42.944433
70
0
0
VERTEX
8
0
10
57.941631
20
43.923222
70
0
0
VERTEX
8
0
10
58.660180
20
45.000317
70
0
0
VERTEX
8
0
10
59.233698
20
46.161147
70
0
0
VERTEX
8
0
10
59.653770
20
47.391138
70
0
0
VERTEX
8
0
10
59.911984
20
48.675717
70
0
0
VERTEX
8
0
10
59.999925
20
50.000311
70
0
0
VERTEX
8
0
10
59.999925
20
50.000311
70
0
0
SEQEND
8
0
0
POLYLINE
8
0
62
7
70
0
10
0.000000
20
0.000000
66
1
0
VERTEX
8
0
10
19.999975
20
80.000273
70
0
0
VERTEX
8
0
10
79.999899
20
80.000273
70
0
0
VERTEX
8
0
10
49.999937
20
100.000248
70
0
0
VERTEX
8
0
10
19.999975
20
80.000273
70
0
0
VERTEX
8
0
10
19.999975
20
80.000273
70
0
0
SEQEND
8
0
0
POLYLINE
8
0
62
7
70
0
10
0.000000
20
0.000000
66
1
0
VERTEX
8
0
10
149.999811
20
70.000286
70
0
0
VERTEX
8
0
10
147.350623
20
69.824404
70
0
0
VERTEX
8
0
10
144.781465
20
69.307977
70
0
0
VERTEX
8
0
10
142.321483
20
68.467833
70
0
0
VERTEX
8
0
10
139.999824
20
67.320797
70
0
0
VERTEX
8
0
10
137.845632
20
65.883699
70
0
0
VERTEX
8
0
10
135.888055
20
64.173365
70
0
0
VERTEX
8
0
10
134.156237
20
62.206622
70
0
0
VERTEX
8
0
10
132.679325
20
60.000299
70
0
0
VERTEX
8
0
10
131.507049
20
57.618093
70
0
0
VERTEX
8
0
10
130.669708
20
55.134924
70
0
0
VERTEX
8
0
10
130.167304
20
52.584445
70
0
0
VERTEX
8
0
10
129.999836
20
50.000311
70
0
0
VERTEX
8
0
10
130.167304
20
47.416178
70
0
0
VERTEX
8
0
10
130.669708
20
44.865699
70
0
0
VERTEX
8
0
10
131.507049
20
42.382529
70
0
0
VERTEX
8
0
10
132.679325
20
40.000324
70
0
0
VERTEX
8
0
10
134.156237
20
37.794000
70
0
0
VERTEX
8
0
10
135.888055
20
35.827258
70
0
0
VERTEX
8
0
10
137.845632
20
34.116923
70
0
0
VERTEX
8
0
10
139.999824
20
32.679825
70
0
0
VERTEX
8
0
10
142.321483
20
31.532790
70
0
0
VERTEX
8
0
10
144.781465
20
30.692645
70
0
0
VERTEX
8
0
10
147.350623
20
30.176218
70
0
0
VERTEX
8
0
10
149.999811
20
30.000336
70
0
0
SEQEND
8
0
0
POLYLINE
8
0
62
8
70
0
10
0.000000
20
0.000000
66
1
0
VERTEX
8
0
10
90.778187
20
44.194529
70
0
0
VERTEX
8
0
10
89.762185
20
44.194529
70
0
0
VERTEX
8
0
10
89.762185
20
47.953727
70
0
0
VERTEX
8
0
10
85.630454
20
47.953727
70
0
0
VERTEX
8
0
10
85.630454
20
44.194529
70
0
0
VERTEX
8
0
10
84.614456
20
44.194529
70
0
0
VERTEX
8
0
10
84.614456
20
52.254790
70
0
0
VERTEX
8
0
10
85.630454
20
52.254790
70
0
0
VERTEX
8
0
10
85.630454
20
48.845548
70
0
0
VERTEX
8
0
10
89.762185
20
48.845548
70
0
0
VERTEX
8
0
10
89.762185
20
52.254790
70
0
0
VERTEX
8
0
10
90.778187
20
52.254790
70
0
0
VERTEX
8
0
10
90.778187
20
44.194529
70
0
0
SEQEND
8
0
0
POLYLINE
8
0
62
8
70
0
10
0.000000
20
0.000000
66
1
0
VERTEX
8
0
10
95.180840
20
50.358259
70
0
0
VERTEX
8
0
10
95.903329
20
50.273593
70
0
0
VERTEX
8
0
10
96.512928
20
50.019593
70
0
0
VERTEX
8
0
10
97.009639
20
49.610371
70
0
0
VERTEX
8
0
10
97.370883
20
49.060038
70
0
0
VERTEX
8
0
10
97.599483
20
48.396816
70
0
0
VERTEX
8
0
10
97.675683
20
47.626350
70
0
0
VERTEX
8
0
10
97.675683
20
47.028038
70
0
0
VERTEX
8
0
10
93.532665
20
47.028038
70
0
0
VERTEX
8
0
10
93.673771
20
46.122105
70
0
0
VERTEX
8
0
10
94.051951
20
45.458883
70
0
0
VERTEX
8
0
10
94.658730
20
45.060951
70
0
0
VERTEX
8
0
10
95.463062
20
44.928307
70
0
0
VERTEX
8
0
10
96.479061
20
45.029907
70
0
0
VERTEX
8
0
10
97.404750
20
45.345994
70
0
0
VERTEX
8
0
10
97.404750
20
44.476751
70
0
0
VERTEX
8
0
10
96.490351
20
44.183239
70
0
0
VERTEX
8
0
10
95.417906
20
44.081639
70
0
0
VERTEX
8
0
10
94.607930
20
44.169128
70
0
0
VERTEX
8
0
10
93.893908
20
44.431595
70
0
0
VERTEX
8
0
10
93.309708
20
44.866218
70
0
0
VERTEX
8
0
10
92.866620
20
45.470173
70
0
0
VERTEX
8
0
10
92.595687
20
46.246283
70
0
0
VERTEX
8
0
10
92.505376
20
47.174794
70
0
0
VERTEX
8
0
10
92.587221
20
48.097660
70
0
0
VERTEX
8
0
10
92.832753
20
48.879415
70
0
0
VERTEX
8
0
10
93.236331
20
49.508770
70
0
0
VERTEX
8
0
10
93.769731
20
49.974437
70
0
0
VERTEX
8
0
10
94.427308
20
50.262304
70
0
0
VERTEX
8
0
10
95.180840
20
50.358259
70
0
0
VERTEX
8
0
10
95.180840
20
50.358259
70
0
0
SEQEND
8
0
0
POLYLINE
8
0
62
8
70
0
10
0.000000
20
0.000000
66
1
0
VERTEX
8
0
10
95.169542
20
49.545458
70
0
0
VERTEX
8
0
10
94.531720
20
49.429747
70
0
0
VERTEX
8
0
10
94.040654
20
49.082615
70
0
0
VERTEX
8
0
10
93.716098
20
48.540748
70
0
0
VERTEX
8
0
10
93.555231
20
47.818260
70
0
0
VERTEX
8
0
10
96.637097
20
47.818260
70
0
0
VERTEX
8
0
10
96.541136
20
48.512527
70
0
0
VERTEX
8
0
10
96.275851
20
49.060038
70
0
0
VERTEX
8
0
10
95.824297
20
49.424103
70
0
0
VERTEX
8
0
10
95.169542
20
49.545458
70
0
0
VERTEX
8
0
10
95.169542
20
49.545458
70
0
0
SEQEND
8
0
0
POLYLINE
8
0
62
8
70
0
10
0.000000
20
0.000000
66
1
0
VERTEX
8
0
10
100.204374
20
44.194529
70
0
0
VERTEX
8
0
10
99.210952
20
44.194529
70
0
0
VERTEX
8
0
10
99.210952
20
52.774080
70
0
0
VERTEX
8
0
10
100.204374
20
52.774080
70
0
0
VERTEX
8
0
10
100.204374
20
44.194529
70
0
0
SEQEND
8
0
0
POLYLINE
8
0
62
8
70
0
10
0.000000
20
0.000000
66
1
0
VERTEX
8
0
10
103.116898
20
44.194529
70
0
0
VERTEX
8
0
10
102.123479
20
44.194529
70
0
0
VERTEX
8
0
10
102.123479
20
52.774080
70
0
0
VERTEX
8
0
10
103.116898
20
52.774080
70
0
0
VERTEX
8
0
10
103.116898
20
44.194529
70
0
0
SEQEND
8
0
0
POLYLINE
8
0
62
8
70
0
10
0.000000
20
0.000000
66
1
0
VERTEX
8
0
10
110.296623
20
47.231238
70
0
0
VERTEX
8
0
10
110.104711
20
45.899150
70
0
0
VERTEX
8
0
10
109.528977
20
44.905728
70
0
0
VERTEX
8
0
10
108.637155
20
44.287661
70
0
0
VERTEX
8
0
10
107.474400
20
44.081639
70
0
0
VERTEX
8
0
10
106.715224
20
44.171950
70
0
0
VERTEX
8
0
10
106.040712
20
44.442885
70
0
0
VERTEX
8
0
10
105.484735
20
44.897262
70
0
0
VERTEX
8
0
10
105.058580
20
45.515327
70
0
0
VERTEX
8
0
10
104.787646
20
46.299905
70
0
0
VERTEX
8
0
10
104.697335
20
47.231238
70
0
0
VERTEX
8
0
10
104.886423
20
48.560503
70
0
0
VERTEX
8
0
10
105.453690
20
49.545458
70
0
0
VERTEX
8
0
10
106.345512
20
50.155059
70
0
0
VERTEX
8
0
10
107.508267
20
50.358259
70
0
0
VERTEX
8
0
10
108.281556
20
50.265126
70
0
0
VERTEX
8
0
10
108.953245
20
49.985727
70
0
0
VERTEX
8
0
10
109.514867
20
49.539815
70
0
0
VERTEX
8
0
10
109.935377
20
48.924571
70
0
0
VERTEX
8
0
10
110.206311
20
48.156927
70
0
0
VERTEX
8
0
10
110.296623
20
47.231238
70
0
0
VERTEX
8
0
10
110.296623
20
47.231238
70
0
0
SEQEND
8
0
0
POLYLINE
8
0
62
8
70
0
10
0.000000
20
0.000000
66
1
0
VERTEX
8
0
10
105.724623
20
47.231238
70
0
0
VERTEX
8
0
10
105.829045
20
46.268861
70
0
0
VERTEX
8
0
10
106.142312
20
45.526617
70
0
0
VERTEX
8
0
10
106.695469
20
45.060950
70
0
0
VERTEX
8
0
10
107.496980
20
44.905728
70
0
0
VERTEX
8
0
10
108.290023
20
45.060950
70
0
0
VERTEX
8
0
10
108.840355
20
45.526617
70
0
0
VERTEX
8
0
10
109.162089
20
46.268861
70
0
0
VERTEX
8
0
10
109.269334
20
47.231238
70
0
0
VERTEX
8
0
10
109.162089
20
48.187971
70
0
0
VERTEX
8
0
10
108.840355
20
48.913282
70
0
0
VERTEX
8
0
10
108.287201
20
49.370481
70
0
0
VERTEX
8
0
10
107.485690
20
49.522881
70
0
0
VERTEX
8
0
10
106.687001
20
49.370481
70
0
0
VERTEX
8
0
10
106.142312
20
48.913282
70
0
0
VERTEX
8
0
10
105.829045
20
48.187971
70
0
0
VERTEX
8
0
10
105.724623
20
47.231238
70
0
0
VERTEX
8
0
10
105.724623
20
47.231238
70
0
0
SEQEND
8
0
 0 
ENDSEC
 0 
EOF